<svg width="1490" height="46" viewBox="0 0 1490 46" fill="none" xmlns="http://www.w3.org/2000/svg">
<path d="M3.83331 17.25C3.83331 22.3333 5.85265 27.2084 9.4471 30.8029C13.0415 34.3973 17.9167 36.4167 23 36.4167C28.0833 36.4167 32.9584 34.3973 36.5529 30.8029C40.1473 27.2084 42.1666 22.3333 42.1666 17.25" stroke="url(#paint0_linear_25_3)" stroke-width="2" stroke-linecap="round" stroke-linejoin="round"/>
<path d="M23 36.4167C23 31.3334 25.0193 26.4582 28.6138 22.8638C32.2082 19.2693 37.0833 17.25 42.1666 17.25M3.83331 17.25C6.35032 17.25 8.84267 17.7458 11.1681 18.709C13.4935 19.6722 15.6064 21.084 17.3862 22.8638C19.166 24.6436 20.5778 26.7565 21.541 29.0819C22.5042 31.4073 23 33.8997 23 36.4167" stroke="url(#paint1_linear_25_3)" stroke-width="2" stroke-linecap="round" stroke-linejoin="round"/>
<path d="M23 7.66675C24.9316 9.51069 26.4432 11.7491 27.4322 14.2296C28.4211 16.7102 28.864 19.3747 28.7308 22.0417M17.2692 22.0417C17.136 19.3747 17.5789 16.7102 18.5678 14.2296C19.5568 11.7491 21.0684 9.51069 23 7.66675" stroke="url(#paint2_linear_25_3)" stroke-width="2" stroke-linecap="round" stroke-linejoin="round"/>
<path d="M60.679 34.5H52.429V11.2273H60.7472C63.0881 11.2273 65.1032 11.6932 66.7926 12.625C68.482 13.5492 69.7813 14.8788 70.6903 16.6136C71.607 18.3485 72.0653 20.4242 72.0653 22.8409C72.0653 25.2652 71.607 27.3485 70.6903 29.0909C69.7813 30.8333 68.4744 32.1705 66.7699 33.1023C65.0729 34.0341 63.0426 34.5 60.679 34.5ZM57.3494 30.2841H60.4744C61.929 30.2841 63.1525 30.0265 64.1449 29.5114C65.1449 28.9886 65.8949 28.1818 66.3949 27.0909C66.9025 25.9924 67.1562 24.5758 67.1562 22.8409C67.1562 21.1212 66.9025 19.7159 66.3949 18.625C65.8949 17.5341 65.1487 16.7311 64.1562 16.2159C63.1638 15.7008 61.9403 15.4432 60.4858 15.4432H57.3494V30.2841ZM80.5966 34.8295C79.483 34.8295 78.4905 34.6364 77.6193 34.25C76.7481 33.8561 76.0587 33.2765 75.5511 32.5114C75.0511 31.7386 74.8011 30.7765 74.8011 29.625C74.8011 28.6553 74.9792 27.8409 75.3352 27.1818C75.6913 26.5227 76.1761 25.9924 76.7898 25.5909C77.4034 25.1894 78.1004 24.8864 78.8807 24.6818C79.6686 24.4773 80.4943 24.3333 81.358 24.25C82.3731 24.1439 83.1913 24.0455 83.8125 23.9545C84.4337 23.8561 84.8845 23.7121 85.1648 23.5227C85.4451 23.3333 85.5852 23.053 85.5852 22.6818V22.6136C85.5852 21.8939 85.358 21.3371 84.9034 20.9432C84.4564 20.5492 83.8201 20.3523 82.9943 20.3523C82.1231 20.3523 81.4299 20.5455 80.9148 20.9318C80.3996 21.3106 80.0587 21.7879 79.892 22.3636L75.4148 22C75.642 20.9394 76.089 20.0227 76.7557 19.25C77.4223 18.4697 78.2822 17.8712 79.3352 17.4545C80.3958 17.0303 81.6231 16.8182 83.017 16.8182C83.9867 16.8182 84.9148 16.9318 85.8011 17.1591C86.6951 17.3864 87.4867 17.7386 88.1761 18.2159C88.8731 18.6932 89.4223 19.3068 89.8239 20.0568C90.2254 20.7992 90.4261 21.6894 90.4261 22.7273V34.5H85.8352V32.0795H85.6989C85.4186 32.625 85.0436 33.1061 84.5739 33.5227C84.1042 33.9318 83.5398 34.2538 82.8807 34.4886C82.2216 34.7159 81.4602 34.8295 80.5966 34.8295ZM81.983 31.4886C82.6951 31.4886 83.3239 31.3485 83.8693 31.0682C84.4148 30.7803 84.8428 30.3939 85.1534 29.9091C85.464 29.4242 85.6193 28.875 85.6193 28.2614V26.4091C85.4678 26.5076 85.2595 26.5985 84.9943 26.6818C84.7367 26.7576 84.4451 26.8295 84.1193 26.8977C83.7936 26.9583 83.4678 27.0152 83.142 27.0682C82.8163 27.1136 82.5208 27.1553 82.2557 27.1932C81.6875 27.2765 81.1913 27.4091 80.767 27.5909C80.3428 27.7727 80.0133 28.0189 79.7784 28.3295C79.5436 28.6326 79.4261 29.0114 79.4261 29.4659C79.4261 30.125 79.6648 30.6288 80.142 30.9773C80.6269 31.3182 81.2405 31.4886 81.983 31.4886ZM105.375 27.0682V17.0455H110.216V34.5H105.568V31.3295H105.386C104.992 32.3523 104.337 33.1742 103.42 33.7955C102.511 34.4167 101.402 34.7273 100.091 34.7273C98.9242 34.7273 97.8977 34.4621 97.0114 33.9318C96.125 33.4015 95.4318 32.6477 94.9318 31.6705C94.4394 30.6932 94.1894 29.5227 94.1818 28.1591V17.0455H99.0227V27.2955C99.0303 28.3258 99.3068 29.1402 99.8523 29.7386C100.398 30.3371 101.129 30.6364 102.045 30.6364C102.629 30.6364 103.174 30.5038 103.682 30.2386C104.189 29.9659 104.598 29.5644 104.909 29.0341C105.227 28.5038 105.383 27.8485 105.375 27.0682ZM118.929 24.4091V34.5H114.088V17.0455H118.702V20.125H118.906C119.293 19.1098 119.94 18.3068 120.849 17.7159C121.759 17.1174 122.861 16.8182 124.156 16.8182C125.368 16.8182 126.425 17.0833 127.327 17.6136C128.228 18.1439 128.929 18.9015 129.429 19.8864C129.929 20.8636 130.179 22.0303 130.179 23.3864V34.5H125.338V24.25C125.346 23.1818 125.073 22.3485 124.52 21.75C123.967 21.1439 123.205 20.8409 122.236 20.8409C121.584 20.8409 121.009 20.9811 120.509 21.2614C120.016 21.5417 119.63 21.9508 119.349 22.4886C119.077 23.0189 118.937 23.6591 118.929 24.4091ZM138.381 29.4773L138.392 23.6705H139.097L144.688 17.0455H150.244L142.733 25.8182H141.585L138.381 29.4773ZM133.994 34.5V11.2273H138.835V34.5H133.994ZM144.903 34.5L139.767 26.8977L142.994 23.4773L150.574 34.5H144.903ZM163.812 27.0682V17.0455H168.653V34.5H164.006V31.3295H163.824C163.43 32.3523 162.775 33.1742 161.858 33.7955C160.949 34.4167 159.839 34.7273 158.528 34.7273C157.362 34.7273 156.335 34.4621 155.449 33.9318C154.563 33.4015 153.869 32.6477 153.369 31.6705C152.877 30.6932 152.627 29.5227 152.619 28.1591V17.0455H157.46V27.2955C157.468 28.3258 157.744 29.1402 158.29 29.7386C158.835 30.3371 159.566 30.6364 160.483 30.6364C161.066 30.6364 161.612 30.5038 162.119 30.2386C162.627 29.9659 163.036 29.5644 163.347 29.0341C163.665 28.5038 163.82 27.8485 163.812 27.0682Z" fill="white"/>
<path d="M493.883 15.16V31H490.571V15.16H493.883ZM483.587 15.16V31H480.275V15.16H483.587ZM492.299 21.664V24.328H481.931V21.664H492.299ZM503.036 18.76C504.252 18.76 505.316 19.008 506.228 19.504C507.156 20 507.876 20.712 508.388 21.64C508.916 22.568 509.18 23.688 509.18 25C509.18 26.296 508.916 27.416 508.388 28.36C507.876 29.288 507.156 30 506.228 30.496C505.316 30.992 504.252 31.24 503.036 31.24C501.836 31.24 500.772 30.992 499.844 30.496C498.916 30 498.188 29.288 497.66 28.36C497.148 27.416 496.892 26.296 496.892 25C496.892 23.688 497.148 22.568 497.66 21.64C498.188 20.712 498.916 20 499.844 19.504C500.772 19.008 501.836 18.76 503.036 18.76ZM503.036 21.208C502.428 21.208 501.908 21.352 501.476 21.64C501.06 21.912 500.74 22.328 500.516 22.888C500.292 23.448 500.18 24.152 500.18 25C500.18 25.848 500.292 26.552 500.516 27.112C500.74 27.672 501.06 28.096 501.476 28.384C501.908 28.656 502.428 28.792 503.036 28.792C503.628 28.792 504.132 28.656 504.548 28.384C504.98 28.096 505.308 27.672 505.532 27.112C505.756 26.552 505.868 25.848 505.868 25C505.868 24.152 505.756 23.448 505.532 22.888C505.308 22.328 504.98 21.912 504.548 21.64C504.132 21.352 503.628 21.208 503.036 21.208ZM511.931 31V19H514.883L515.003 21.16C515.403 20.36 515.947 19.76 516.635 19.36C517.339 18.96 518.115 18.76 518.963 18.76C519.827 18.76 520.603 18.96 521.291 19.36C521.995 19.76 522.523 20.352 522.875 21.136C523.131 20.608 523.475 20.168 523.907 19.816C524.339 19.464 524.819 19.2 525.347 19.024C525.875 18.848 526.411 18.76 526.955 18.76C527.739 18.76 528.451 18.92 529.091 19.24C529.747 19.56 530.267 20.04 530.651 20.68C531.035 21.32 531.227 22.136 531.227 23.128V31H527.939V23.776C527.939 22.896 527.747 22.272 527.363 21.904C526.979 21.536 526.483 21.352 525.875 21.352C525.395 21.352 524.947 21.472 524.531 21.712C524.131 21.952 523.811 22.312 523.571 22.792C523.347 23.256 523.235 23.84 523.235 24.544V31H519.947V23.776C519.947 22.896 519.747 22.272 519.347 21.904C518.963 21.536 518.467 21.352 517.859 21.352C517.443 21.352 517.027 21.464 516.611 21.688C516.211 21.912 515.875 22.264 515.603 22.744C515.347 23.224 515.219 23.856 515.219 24.64V31H511.931ZM540.187 31.24C538.923 31.24 537.819 30.992 536.875 30.496C535.947 30 535.227 29.288 534.715 28.36C534.203 27.432 533.947 26.312 533.947 25C533.947 23.688 534.203 22.568 534.715 21.64C535.227 20.712 535.939 20 536.851 19.504C537.779 19.008 538.835 18.76 540.019 18.76C541.235 18.76 542.267 19.008 543.115 19.504C543.963 19.984 544.611 20.648 545.059 21.496C545.507 22.328 545.731 23.28 545.731 24.352C545.731 24.672 545.723 24.976 545.707 25.264C545.691 25.552 545.667 25.808 545.635 26.032H536.059V23.752H544.195L542.611 24.328C542.611 23.32 542.379 22.544 541.915 22C541.467 21.456 540.827 21.184 539.995 21.184C539.387 21.184 538.859 21.328 538.411 21.616C537.979 21.904 537.651 22.336 537.427 22.912C537.203 23.472 537.091 24.184 537.091 25.048C537.091 25.896 537.211 26.6 537.451 27.16C537.707 27.704 538.059 28.112 538.507 28.384C538.971 28.656 539.523 28.792 540.163 28.792C540.867 28.792 541.435 28.656 541.867 28.384C542.299 28.112 542.635 27.736 542.875 27.256L545.491 28.264C545.235 28.888 544.843 29.424 544.315 29.872C543.803 30.32 543.187 30.664 542.467 30.904C541.763 31.128 541.003 31.24 540.187 31.24Z" fill="url(#paint3_linear_25_3)"/>
<path d="M622.844 14.92C624.236 14.92 625.436 15.208 626.444 15.784C627.452 16.344 628.292 17.176 628.964 18.28L627.356 19.528C626.764 18.504 626.092 17.784 625.34 17.368C624.604 16.936 623.708 16.72 622.652 16.72C621.804 16.72 621.1 16.84 620.54 17.08C619.996 17.32 619.596 17.64 619.34 18.04C619.084 18.424 618.956 18.864 618.956 19.36C618.956 19.92 619.132 20.416 619.484 20.848C619.836 21.264 620.54 21.592 621.596 21.832L625.028 22.6C626.548 22.936 627.604 23.448 628.196 24.136C628.804 24.808 629.108 25.648 629.108 26.656C629.108 27.552 628.852 28.352 628.34 29.056C627.844 29.744 627.14 30.28 626.228 30.664C625.316 31.048 624.244 31.24 623.012 31.24C621.86 31.24 620.844 31.088 619.964 30.784C619.1 30.464 618.356 30.04 617.732 29.512C617.108 28.984 616.596 28.392 616.196 27.736L617.876 26.368C618.18 26.976 618.572 27.512 619.052 27.976C619.532 28.44 620.108 28.8 620.78 29.056C621.468 29.312 622.252 29.44 623.132 29.44C623.948 29.44 624.652 29.344 625.244 29.152C625.852 28.944 626.316 28.648 626.636 28.264C626.956 27.864 627.116 27.384 627.116 26.824C627.116 26.312 626.948 25.856 626.612 25.456C626.276 25.04 625.644 24.728 624.716 24.52L620.996 23.68C620.02 23.456 619.228 23.152 618.62 22.768C618.028 22.368 617.596 21.904 617.324 21.376C617.068 20.832 616.94 20.248 616.94 19.624C616.94 18.776 617.172 18 617.636 17.296C618.116 16.576 618.796 16 619.676 15.568C620.572 15.136 621.628 14.92 622.844 14.92ZM632.771 31V13.48H634.691V20.8C635.107 20.08 635.659 19.56 636.347 19.24C637.035 18.92 637.787 18.76 638.603 18.76C639.467 18.76 640.251 18.928 640.955 19.264C641.659 19.584 642.219 20.08 642.635 20.752C643.067 21.424 643.283 22.28 643.283 23.32V31H641.363V23.992C641.363 22.664 641.075 21.744 640.499 21.232C639.939 20.704 639.243 20.44 638.411 20.44C637.835 20.44 637.259 20.576 636.683 20.848C636.107 21.12 635.627 21.568 635.243 22.192C634.875 22.8 634.691 23.616 634.691 24.64V31H632.771ZM652.598 18.76C653.734 18.76 654.734 19.008 655.598 19.504C656.478 20 657.166 20.72 657.662 21.664C658.158 22.592 658.406 23.704 658.406 25C658.406 26.296 658.158 27.416 657.662 28.36C657.166 29.288 656.478 30 655.598 30.496C654.734 30.992 653.734 31.24 652.598 31.24C651.478 31.24 650.478 30.992 649.598 30.496C648.718 30 648.03 29.288 647.534 28.36C647.038 27.416 646.79 26.296 646.79 25C646.79 23.704 647.038 22.592 647.534 21.664C648.03 20.72 648.718 20 649.598 19.504C650.478 19.008 651.478 18.76 652.598 18.76ZM652.598 20.416C651.782 20.416 651.086 20.6 650.51 20.968C649.934 21.336 649.486 21.864 649.166 22.552C648.862 23.224 648.71 24.04 648.71 25C648.71 25.944 648.862 26.76 649.166 27.448C649.486 28.136 649.934 28.664 650.51 29.032C651.086 29.4 651.782 29.584 652.598 29.584C653.414 29.584 654.11 29.4 654.686 29.032C655.262 28.664 655.702 28.136 656.006 27.448C656.326 26.76 656.486 25.944 656.486 25C656.486 24.04 656.326 23.224 656.006 22.552C655.702 21.864 655.262 21.336 654.686 20.968C654.11 20.6 653.414 20.416 652.598 20.416ZM662.021 36.04V19H663.701L663.869 21.928L663.605 21.592C663.813 21.032 664.125 20.544 664.541 20.128C664.957 19.696 665.461 19.36 666.053 19.12C666.645 18.88 667.285 18.76 667.973 18.76C668.949 18.76 669.845 19.008 670.661 19.504C671.493 20 672.157 20.712 672.653 21.64C673.149 22.568 673.397 23.688 673.397 25C673.397 26.296 673.141 27.416 672.629 28.36C672.133 29.288 671.469 30 670.637 30.496C669.805 30.992 668.893 31.24 667.901 31.24C666.909 31.24 666.037 31 665.285 30.52C664.549 30.024 664.021 29.4 663.701 28.648L663.941 28.288V36.04H662.021ZM667.709 29.56C668.893 29.56 669.813 29.144 670.469 28.312C671.141 27.48 671.477 26.376 671.477 25C671.477 23.624 671.149 22.52 670.493 21.688C669.853 20.856 668.949 20.44 667.781 20.44C667.013 20.44 666.341 20.632 665.765 21.016C665.189 21.384 664.741 21.912 664.421 22.6C664.101 23.272 663.941 24.072 663.941 25C663.941 25.912 664.093 26.712 664.397 27.4C664.717 28.088 665.157 28.624 665.717 29.008C666.293 29.376 666.957 29.56 667.709 29.56Z" fill="white"/>
<path d="M758.333 31H756.293L754.613 26.608H747.437L745.757 31H743.741L749.909 15.16H752.189L758.333 31ZM748.133 24.808H753.917L751.013 17.008L748.133 24.808ZM767.073 31.24C766.401 31.24 765.777 31.12 765.201 30.88C764.625 30.64 764.129 30.304 763.713 29.872C763.297 29.44 762.985 28.952 762.777 28.408L763.041 28.072L762.873 31H761.193V13.48H763.113V21.712L762.873 21.352C763.193 20.6 763.729 19.984 764.481 19.504C765.249 19.008 766.121 18.76 767.097 18.76C768.089 18.76 769.001 19.008 769.833 19.504C770.665 20 771.329 20.712 771.825 21.64C772.321 22.568 772.569 23.688 772.569 25C772.569 26.296 772.313 27.416 771.801 28.36C771.305 29.288 770.641 30 769.809 30.496C768.977 30.992 768.065 31.24 767.073 31.24ZM766.881 29.56C768.065 29.56 768.985 29.144 769.641 28.312C770.313 27.48 770.649 26.376 770.649 25C770.649 23.624 770.321 22.52 769.665 21.688C769.009 20.856 768.089 20.44 766.905 20.44C766.153 20.44 765.489 20.632 764.913 21.016C764.353 21.4 763.913 21.936 763.593 22.624C763.273 23.312 763.113 24.12 763.113 25.048C763.113 25.96 763.265 26.76 763.569 27.448C763.889 28.12 764.329 28.64 764.889 29.008C765.465 29.376 766.129 29.56 766.881 29.56ZM781.208 18.76C782.344 18.76 783.344 19.008 784.208 19.504C785.088 20 785.776 20.72 786.272 21.664C786.768 22.592 787.016 23.704 787.016 25C787.016 26.296 786.768 27.416 786.272 28.36C785.776 29.288 785.088 30 784.208 30.496C783.344 30.992 782.344 31.24 781.208 31.24C780.088 31.24 779.088 30.992 778.208 30.496C777.328 30 776.64 29.288 776.144 28.36C775.648 27.416 775.4 26.296 775.4 25C775.4 23.704 775.648 22.592 776.144 21.664C776.64 20.72 777.328 20 778.208 19.504C779.088 19.008 780.088 18.76 781.208 18.76ZM781.208 20.416C780.392 20.416 779.696 20.6 779.12 20.968C778.544 21.336 778.096 21.864 777.776 22.552C777.472 23.224 777.32 24.04 777.32 25C777.32 25.944 777.472 26.76 777.776 27.448C778.096 28.136 778.544 28.664 779.12 29.032C779.696 29.4 780.392 29.584 781.208 29.584C782.024 29.584 782.72 29.4 783.296 29.032C783.872 28.664 784.312 28.136 784.616 27.448C784.936 26.76 785.096 25.944 785.096 25C785.096 24.04 784.936 23.224 784.616 22.552C784.312 21.864 783.872 21.336 783.296 20.968C782.72 20.6 782.024 20.416 781.208 20.416ZM794.974 31.24C794.206 31.24 793.478 31.096 792.79 30.808C792.118 30.52 791.566 30.056 791.134 29.416C790.718 28.76 790.51 27.912 790.51 26.872V19H792.43V26.368C792.43 27.584 792.694 28.424 793.222 28.888C793.75 29.336 794.494 29.56 795.454 29.56C795.902 29.56 796.342 29.488 796.774 29.344C797.206 29.184 797.59 28.944 797.926 28.624C798.278 28.288 798.55 27.864 798.742 27.352C798.95 26.84 799.054 26.232 799.054 25.528V19H800.974V31H799.294L799.174 29.176C798.758 29.896 798.19 30.424 797.47 30.76C796.766 31.08 795.934 31.24 794.974 31.24ZM808.275 15.592V27.688C808.275 28.28 808.443 28.72 808.779 29.008C809.115 29.296 809.547 29.44 810.075 29.44C810.539 29.44 810.939 29.36 811.275 29.2C811.611 29.04 811.915 28.824 812.187 28.552L812.859 30.16C812.491 30.496 812.051 30.76 811.539 30.952C811.043 31.144 810.467 31.24 809.811 31.24C809.203 31.24 808.635 31.136 808.107 30.928C807.579 30.704 807.155 30.36 806.835 29.896C806.531 29.416 806.371 28.792 806.355 28.024V16.12L808.275 15.592ZM812.643 19V20.656H803.955V19H812.643ZM836.157 15.16V25.096C836.157 27.128 835.621 28.664 834.549 29.704C833.477 30.728 831.941 31.24 829.941 31.24C827.957 31.24 826.421 30.728 825.333 29.704C824.261 28.664 823.725 27.128 823.725 25.096V15.16H825.645V24.616C825.645 26.264 825.989 27.48 826.677 28.264C827.381 29.048 828.469 29.44 829.941 29.44C831.413 29.44 832.493 29.048 833.181 28.264C833.885 27.48 834.237 26.264 834.237 24.616V15.16H836.157ZM844.779 31.24C843.611 31.24 842.531 30.992 841.539 30.496C840.563 30 839.811 29.296 839.283 28.384L840.915 27.208C841.267 27.944 841.779 28.52 842.451 28.936C843.139 29.352 843.963 29.56 844.923 29.56C845.771 29.56 846.435 29.4 846.915 29.08C847.395 28.744 847.635 28.312 847.635 27.784C847.635 27.448 847.523 27.144 847.299 26.872C847.091 26.584 846.683 26.376 846.075 26.248L843.195 25.648C842.027 25.408 841.187 25.008 840.675 24.448C840.179 23.888 839.931 23.192 839.931 22.36C839.931 21.704 840.115 21.104 840.483 20.56C840.867 20.016 841.403 19.584 842.091 19.264C842.795 18.928 843.619 18.76 844.563 18.76C845.747 18.76 846.747 18.992 847.563 19.456C848.379 19.92 848.987 20.576 849.387 21.424L847.779 22.48C847.507 21.776 847.067 21.264 846.459 20.944C845.851 20.608 845.219 20.44 844.563 20.44C843.987 20.44 843.491 20.52 843.075 20.68C842.675 20.84 842.363 21.064 842.139 21.352C841.931 21.624 841.827 21.936 841.827 22.288C841.827 22.64 841.947 22.968 842.187 23.272C842.427 23.56 842.875 23.768 843.531 23.896L846.531 24.52C847.651 24.744 848.435 25.112 848.883 25.624C849.331 26.136 849.555 26.76 849.555 27.496C849.555 28.248 849.355 28.912 848.955 29.488C848.555 30.048 847.995 30.48 847.275 30.784C846.555 31.088 845.723 31.24 844.779 31.24Z" fill="white"/>
<path d="M934.524 26.944C934.188 27.84 933.708 28.616 933.084 29.272C932.46 29.912 931.724 30.4 930.876 30.736C930.044 31.072 929.132 31.24 928.14 31.24C926.636 31.24 925.332 30.912 924.228 30.256C923.14 29.584 922.292 28.64 921.684 27.424C921.092 26.208 920.796 24.76 920.796 23.08C920.796 21.4 921.092 19.952 921.684 18.736C922.292 17.52 923.14 16.584 924.228 15.928C925.332 15.256 926.62 14.92 928.092 14.92C929.116 14.92 930.028 15.064 930.828 15.352C931.628 15.624 932.308 16.04 932.868 16.6C933.444 17.144 933.9 17.816 934.236 18.616L932.34 19.504C931.988 18.592 931.476 17.904 930.804 17.44C930.148 16.96 929.292 16.72 928.236 16.72C927.164 16.72 926.22 16.976 925.404 17.488C924.588 17.984 923.948 18.704 923.484 19.648C923.036 20.592 922.812 21.736 922.812 23.08C922.812 24.408 923.028 25.552 923.46 26.512C923.892 27.456 924.508 28.184 925.308 28.696C926.108 29.192 927.052 29.44 928.14 29.44C929.196 29.44 930.116 29.176 930.9 28.648C931.684 28.104 932.252 27.296 932.604 26.224L934.524 26.944ZM942.817 18.76C943.953 18.76 944.953 19.008 945.817 19.504C946.697 20 947.385 20.72 947.881 21.664C948.377 22.592 948.625 23.704 948.625 25C948.625 26.296 948.377 27.416 947.881 28.36C947.385 29.288 946.697 30 945.817 30.496C944.953 30.992 943.953 31.24 942.817 31.24C941.697 31.24 940.697 30.992 939.817 30.496C938.937 30 938.249 29.288 937.753 28.36C937.257 27.416 937.009 26.296 937.009 25C937.009 23.704 937.257 22.592 937.753 21.664C938.249 20.72 938.937 20 939.817 19.504C940.697 19.008 941.697 18.76 942.817 18.76ZM942.817 20.416C942.001 20.416 941.305 20.6 940.729 20.968C940.153 21.336 939.705 21.864 939.385 22.552C939.081 23.224 938.929 24.04 938.929 25C938.929 25.944 939.081 26.76 939.385 27.448C939.705 28.136 940.153 28.664 940.729 29.032C941.305 29.4 942.001 29.584 942.817 29.584C943.633 29.584 944.329 29.4 944.905 29.032C945.481 28.664 945.921 28.136 946.225 27.448C946.545 26.76 946.705 25.944 946.705 25C946.705 24.04 946.545 23.224 946.225 22.552C945.921 21.864 945.481 21.336 944.905 20.968C944.329 20.6 943.633 20.416 942.817 20.416ZM952.24 31V19H953.92L954.088 21.688L953.776 21.424C954.032 20.784 954.376 20.272 954.808 19.888C955.24 19.488 955.736 19.2 956.296 19.024C956.872 18.848 957.464 18.76 958.072 18.76C958.936 18.76 959.72 18.928 960.424 19.264C961.128 19.584 961.688 20.08 962.104 20.752C962.536 21.424 962.752 22.28 962.752 23.32V31H960.832V23.992C960.832 22.664 960.544 21.744 959.968 21.232C959.408 20.704 958.712 20.44 957.88 20.44C957.304 20.44 956.728 20.576 956.152 20.848C955.576 21.12 955.096 21.56 954.712 22.168C954.344 22.776 954.16 23.592 954.16 24.616V31H952.24ZM969.767 15.592V27.688C969.767 28.28 969.935 28.72 970.271 29.008C970.607 29.296 971.039 29.44 971.567 29.44C972.031 29.44 972.431 29.36 972.767 29.2C973.103 29.04 973.407 28.824 973.679 28.552L974.351 30.16C973.983 30.496 973.543 30.76 973.031 30.952C972.535 31.144 971.959 31.24 971.303 31.24C970.695 31.24 970.127 31.136 969.599 30.928C969.071 30.704 968.647 30.36 968.327 29.896C968.023 29.416 967.863 28.792 967.847 28.024V16.12L969.767 15.592ZM974.135 19V20.656H965.447V19H974.135ZM983.998 23.248C983.998 22.352 983.758 21.664 983.278 21.184C982.798 20.688 982.118 20.44 981.238 20.44C980.406 20.44 979.702 20.624 979.126 20.992C978.55 21.344 978.126 21.92 977.854 22.72L976.294 21.76C976.614 20.864 977.206 20.144 978.07 19.6C978.934 19.04 980.006 18.76 981.286 18.76C982.15 18.76 982.934 18.912 983.638 19.216C984.342 19.504 984.894 19.952 985.294 20.56C985.71 21.152 985.918 21.92 985.918 22.864V28.672C985.918 29.248 986.222 29.536 986.83 29.536C987.134 29.536 987.43 29.496 987.718 29.416L987.622 30.928C987.302 31.088 986.886 31.168 986.374 31.168C985.91 31.168 985.494 31.08 985.126 30.904C984.758 30.728 984.47 30.464 984.262 30.112C984.054 29.744 983.95 29.288 983.95 28.744V28.504L984.43 28.576C984.238 29.2 983.91 29.712 983.446 30.112C982.982 30.496 982.462 30.784 981.886 30.976C981.31 31.152 980.742 31.24 980.182 31.24C979.478 31.24 978.822 31.12 978.214 30.88C977.606 30.64 977.118 30.28 976.75 29.8C976.398 29.304 976.222 28.696 976.222 27.976C976.222 27.08 976.518 26.344 977.11 25.768C977.718 25.176 978.558 24.776 979.63 24.568L984.382 23.632V25.216L980.518 26.008C979.734 26.168 979.15 26.392 978.766 26.68C978.382 26.968 978.19 27.368 978.19 27.88C978.19 28.376 978.382 28.784 978.766 29.104C979.166 29.408 979.726 29.56 980.446 29.56C980.91 29.56 981.35 29.504 981.766 29.392C982.198 29.264 982.582 29.08 982.918 28.84C983.254 28.584 983.518 28.272 983.71 27.904C983.902 27.52 983.998 27.072 983.998 26.56V23.248ZM995.552 18.76C996.384 18.76 997.112 18.888 997.736 19.144C998.376 19.4 998.928 19.768 999.392 20.248C999.856 20.728 1000.23 21.296 1000.52 21.952L998.696 22.816C998.44 22.048 998.048 21.464 997.52 21.064C997.008 20.648 996.336 20.44 995.504 20.44C994.704 20.44 994.016 20.624 993.44 20.992C992.864 21.344 992.424 21.864 992.12 22.552C991.816 23.224 991.664 24.04 991.664 25C991.664 25.944 991.816 26.76 992.12 27.448C992.424 28.136 992.864 28.664 993.44 29.032C994.016 29.384 994.704 29.56 995.504 29.56C996.128 29.56 996.664 29.464 997.112 29.272C997.576 29.08 997.952 28.8 998.24 28.432C998.544 28.064 998.752 27.616 998.864 27.088L1000.64 27.712C1000.37 28.448 999.992 29.08 999.512 29.608C999.048 30.136 998.48 30.544 997.808 30.832C997.152 31.104 996.4 31.24 995.552 31.24C994.432 31.24 993.432 30.992 992.552 30.496C991.672 30 990.984 29.288 990.488 28.36C989.992 27.416 989.744 26.296 989.744 25C989.744 23.704 989.992 22.592 990.488 21.664C990.984 20.72 991.672 20 992.552 19.504C993.432 19.008 994.432 18.76 995.552 18.76ZM1006.85 15.592V27.688C1006.85 28.28 1007.01 28.72 1007.35 29.008C1007.69 29.296 1008.12 29.44 1008.65 29.44C1009.11 29.44 1009.51 29.36 1009.85 29.2C1010.18 29.04 1010.49 28.824 1010.76 28.552L1011.43 30.16C1011.06 30.496 1010.62 30.76 1010.11 30.952C1009.61 31.144 1009.04 31.24 1008.38 31.24C1007.77 31.24 1007.21 31.136 1006.68 30.928C1006.15 30.704 1005.73 30.36 1005.41 29.896C1005.1 29.416 1004.94 28.792 1004.93 28.024V16.12L1006.85 15.592ZM1011.21 19V20.656H1002.53V19H1011.21Z" fill="white"/>
<g clip-path="url(#clip0_25_3)">
<path d="M1459 12.7144C1459 8.29578 1462.58 4.71436 1467 4.71436C1471.42 4.71436 1475 8.29578 1475 12.7144V16.1429H1479.57C1481.46 16.1429 1483 17.6786 1483 19.5715V34.4286C1483 38.2144 1479.93 41.2858 1476.14 41.2858H1457.86C1454.07 41.2858 1451 38.2144 1451 34.4286V19.5715C1451 17.6786 1452.54 16.1429 1454.43 16.1429H1459V12.7144ZM1462.43 16.1429H1471.57V12.7144C1471.57 10.1894 1469.52 8.14293 1467 8.14293C1464.48 8.14293 1462.43 10.1894 1462.43 12.7144V16.1429ZM1460.71 23.0001C1461.66 23.0001 1462.43 22.2358 1462.43 21.2858C1462.43 20.3358 1461.66 19.5715 1460.71 19.5715C1459.76 19.5715 1459 20.3358 1459 21.2858C1459 22.2358 1459.76 23.0001 1460.71 23.0001ZM1473.29 19.5715C1472.34 19.5715 1471.57 20.3358 1471.57 21.2858C1471.57 22.2358 1472.34 23.0001 1473.29 23.0001C1474.24 23.0001 1475 22.2358 1475 21.2858C1475 20.3358 1474.24 19.5715 1473.29 19.5715Z" fill="white"/>
</g>
<circle cx="1479.5" cy="18.2144" r="10.5" fill="url(#paint4_linear_25_3)"/>
<path d="M1479.16 22.7144V17.3944C1479.16 17.1517 1479.16 16.9044 1479.16 16.6524C1479.17 16.391 1479.17 16.125 1479.17 15.8544C1478.87 16.1344 1478.52 16.3817 1478.15 16.5964C1477.78 16.8017 1477.39 16.9417 1476.98 17.0164L1476.75 15.0284C1476.99 15.0097 1477.25 14.949 1477.52 14.8464C1477.8 14.7437 1478.08 14.6177 1478.35 14.4684C1478.62 14.319 1478.86 14.1604 1479.08 13.9924C1479.29 13.815 1479.45 13.6424 1479.57 13.4744H1481.48V22.7144H1479.16Z" fill="#2D3949"/>
<defs>
<linearGradient id="paint0_linear_25_3" x1="3.83331" y1="26.8333" x2="42.1666" y2="26.8333" gradientUnits="userSpaceOnUse">
<stop stop-color="#2AF598"/>
<stop offset="1" stop-color="#009EFD"/>
</linearGradient>
<linearGradient id="paint1_linear_25_3" x1="3.83331" y1="26.8333" x2="42.1666" y2="26.8333" gradientUnits="userSpaceOnUse">
<stop stop-color="#2AF598"/>
<stop offset="1" stop-color="#009EFD"/>
</linearGradient>
<linearGradient id="paint2_linear_25_3" x1="17.246" y1="14.8542" x2="28.754" y2="14.8542" gradientUnits="userSpaceOnUse">
<stop stop-color="#2AF598"/>
<stop offset="1" stop-color="#009EFD"/>
</linearGradient>
<linearGradient id="paint3_linear_25_3" x1="478" y1="23" x2="547" y2="23" gradientUnits="userSpaceOnUse">
<stop stop-color="#2AF598"/>
<stop offset="1" stop-color="#009EFD"/>
</linearGradient>
<linearGradient id="paint4_linear_25_3" x1="1469" y1="18.2144" x2="1490" y2="18.2144" gradientUnits="userSpaceOnUse">
<stop stop-color="#2AF598"/>
<stop offset="1" stop-color="#009EFD"/>
</linearGradient>
<clipPath id="clip0_25_3">
<rect width="32" height="36.5714" fill="white" transform="translate(1451 4.71436)"/>
</clipPath>
</defs>
</svg>
